<?xml version="1.0" standalone="no"?>
<!DOCTYPE svg PUBLIC "-//W3C//DTD SVG 20010904//EN"
 "http://www.w3.org/TR/2001/REC-SVG-20010904/DTD/svg10.dtd">
<svg version="1.0" xmlns="http://www.w3.org/2000/svg"
 width="430.000000pt" height="167.000000pt" viewBox="0 0 430.000000 167.000000"
 preserveAspectRatio="xMidYMid meet">
<metadata>
Created by potrace 1.16, written by Peter Selinger 2001-2019
</metadata>
<g transform="translate(0.000000,167.000000) scale(0.100000,-0.100000)"
fill="#000000" stroke="none">
<path d="M680 1561 c-5 -11 -11 -39 -11 -63 -2 -45 -22 -149 -34 -167 -3 -6
-15 -11 -26 -11 -11 0 -22 -6 -25 -14 -4 -12 -15 -12 -69 1 -58 13 -67 13
-100 -3 -20 -9 -39 -24 -44 -33 -8 -16 -38 -145 -62 -266 -6 -33 -14 -65 -16
-72 -3 -8 3 -13 16 -13 12 0 21 4 21 10 0 22 42 33 79 20 31 -10 43 -9 73 3
34 14 37 14 58 -7 12 -11 -7 20 -44 70 -54 76 -66 99 -66 130 0 48 6 57 52 78
58 28 80 11 181 -139 48 -71 91 -131 96 -133 5 -2 12 11 16 27 9 42 25 39 25
-3 l0 -34 41 5 c34 5 45 2 58 -15 14 -18 31 -21 137 -27 l122 -7 17 95 c26
143 6 177 -113 198 -43 8 -65 17 -69 28 -3 9 -14 23 -25 31 -18 15 -18 20 -5
83 8 37 19 73 24 80 14 17 23 81 13 97 -6 10 -256 69 -297 70 -7 0 -17 -9 -23
-19z m139 -65 c31 -8 72 -17 92 -20 l37 -6 -4 -63 c-3 -34 -8 -78 -12 -97 -8
-33 -10 -35 -47 -34 -43 2 -196 34 -207 44 -9 7 14 123 32 163 15 31 29 33
109 13z"/>
<path d="M1392 1138 c3 -20 10 -23 56 -26 l52 -3 0 -275 0 -274 30 0 30 0 0
274 0 275 48 3 c40 3 47 6 50 26 3 22 3 22 -133 22 -136 0 -136 0 -133 -22z"/>
<path d="M1870 860 l0 -300 30 0 30 0 0 115 0 115 48 0 47 -1 79 -114 c75
-108 82 -115 113 -115 40 0 45 -11 -55 130 l-75 104 24 15 c79 51 116 130 97
213 -11 50 -38 86 -86 115 -32 20 -51 23 -144 23 l-108 0 0 -300z m230 230
c36 -25 63 -93 54 -134 -16 -77 -82 -121 -174 -114 l-45 3 -3 133 -3 132 72 0
c55 0 77 -5 99 -20z"/>
<path d="M2585 1074 c-14 -49 -44 -145 -65 -214 -21 -69 -48 -158 -60 -199
-12 -40 -24 -80 -27 -87 -4 -10 4 -14 26 -14 28 0 32 4 46 55 l16 55 94 0 94
0 16 -55 c14 -51 18 -55 46 -55 23 0 30 4 25 15 -3 8 -42 137 -87 287 -45 150
-85 279 -89 287 -5 9 -17 -17 -35 -75z m69 -228 c20 -63 36 -117 36 -120 0 -3
-34 -6 -76 -6 -67 0 -75 2 -70 18 63 219 64 222 70 222 3 0 21 -51 40 -114z"/>
<path d="M2914 1143 c4 -9 42 -134 86 -278 44 -143 83 -272 88 -286 8 -21 13
-13 37 66 23 79 136 450 151 498 4 14 -1 17 -25 17 -29 0 -31 -2 -57 -87 -56
-190 -95 -313 -98 -313 -2 0 -16 39 -31 88 -105 342 -93 312 -127 312 -24 0
-29 -3 -24 -17z"/>
<path d="M3490 860 l0 -300 120 0 120 0 0 25 c0 25 -1 25 -85 25 l-85 0 0 135
0 135 70 0 c68 0 70 1 70 25 0 24 -2 25 -70 25 l-70 0 0 90 0 90 85 0 c84 0
85 0 85 25 l0 25 -120 0 -120 0 0 -300z"/>
<path d="M3960 860 l0 -300 115 0 115 0 0 25 c0 25 -1 25 -85 25 l-85 0 0 275
0 275 -30 0 -30 0 0 -300z"/>
<path d="M259 905 c-3 -2 -35 -5 -72 -7 -87 -3 -83 -21 5 -28 37 -3 70 -8 74
-12 6 -7 -78 -444 -94 -487 -4 -11 2 -13 23 -9 38 8 87 -8 114 -36 21 -22 24
-23 60 -10 27 9 49 10 70 4 26 -7 38 -5 68 16 20 13 49 24 66 24 24 0 42 11
78 49 75 78 94 121 94 216 0 63 -5 89 -23 122 -24 45 -30 49 -115 59 -69 8
-85 24 -25 25 41 1 41 2 -16 11 -46 7 -61 6 -67 -4 -7 -10 -11 -10 -21 0 -15
15 -52 16 -42 1 6 -11 -10 -8 -55 9 -9 3 -12 1 -7 -6 10 -16 -5 -14 -28 3 -11
8 -33 15 -48 15 -25 0 -28 3 -22 25 5 22 -4 33 -17 20z"/>
<path d="M895 840 c-4 -7 -24 -8 -53 -4 -27 4 -43 3 -39 -2 5 -5 59 -14 120
-20 l112 -11 -110 -2 c-60 -1 -116 -5 -123 -9 -10 -7 -8 -18 7 -53 14 -31 21
-66 21 -115 0 -62 -5 -81 -34 -140 l-35 -69 31 35 c35 41 65 103 78 163 8 38
9 35 6 -25 -3 -61 -21 -112 -73 -209 -2 -4 12 -10 31 -13 79 -15 138 -107 117
-182 -9 -33 -8 -40 10 -57 26 -24 34 -15 50 63 6 30 39 188 74 350 34 162 60
298 58 303 -7 11 -241 9 -248 -3z"/>
<path d="M564 280 c-18 -4 -47 -16 -65 -27 -26 -16 -45 -20 -84 -16 -27 2 -61
0 -75 -6 -22 -9 -19 -10 25 -11 41 0 135 -30 135 -42 0 -2 -33 -3 -72 -1 -78
2 -74 0 44 -23 43 -8 98 -23 124 -34 60 -26 54 -8 -17 49 -30 24 -55 47 -57
52 -5 12 84 22 142 16 28 -3 78 -17 111 -31 l60 -26 -48 44 c-62 58 -138 77
-223 56z"/>
</g>
</svg>
