<?xml version="1.0" encoding="UTF-8"?>
<svg version="1.1" xmlns="http://www.w3.org/2000/svg" width="890" height="180">
<path d="M0 0 C2.49407296 1.98084726 4.88617838 4.05348988 7.25 6.1875 C8.11032837 6.95429077 8.11032837 6.95429077 8.98803711 7.73657227 C10.578125 9.23046875 10.578125 9.23046875 13 12 C13 13.32 13 14.64 13 16 C-23.52580791 34.36149118 -23.52580791 34.36149118 -41.453125 42.8359375 C-45.66749012 44.82912202 -49.83798235 46.89981137 -54 49 C-52.49334615 53.41234342 -50.08696864 56.94583076 -47.375 60.6875 C-43 66.73332055 -43 66.73332055 -43 69 C-43.90987671 69.48859497 -43.90987671 69.48859497 -44.83813477 69.98706055 C-58.1526643 77.14566486 -71.38355682 84.43115642 -84.52734375 91.8984375 C-92.31930384 96.32370625 -100.16034668 100.66002442 -108 105 C-87.0946898 104.34387003 -66.26133556 102.70995878 -45.40863037 101.14996338 C-40.6144067 100.79207501 -35.81988529 100.43822054 -31.02539062 100.08398438 C-21.68330508 99.3931778 -12.3415477 98.69803945 -3 98 C-3.76697796 96.58124235 -4.53876778 95.16508548 -5.3125 93.75 C-5.95638672 92.56664063 -5.95638672 92.56664063 -6.61328125 91.359375 C-7.9534484 88.96827026 -7.9534484 88.96827026 -9.66796875 86.828125 C-11 85 -11 85 -11 83 C4.95508579 79.94044389 20.89199906 77.12356283 37 75 C36.22292116 100.21620846 26.06013986 122.33554395 8 140 C-13.07213698 158.22209256 -37.50223316 164.66006754 -65 163 C-89.48733998 160.18680776 -110.39850243 146.42920785 -125.5625 127.5 C-139.33324213 108.52911749 -145.68625329 84.22961329 -142.50390625 60.9296875 C-138.68092516 36.99287444 -126.02380449 14.93858306 -106.4375 0.4375 C-73.9880643 -21.22904868 -32.52840902 -22.61071342 0 0 Z " fill="#FAFAFA" transform="translate(187,16)"/>
<path d="M0 0 C6.6 0 13.2 0 20 0 C21.12496888 6.74981328 21.12496888 6.74981328 21.22741699 10.01283264 C21.26517494 11.12031357 21.26517494 11.12031357 21.30369568 12.25016785 C21.32658157 13.04038834 21.34946747 13.83060883 21.37304688 14.64477539 C21.40084732 15.49283752 21.42864777 16.34089966 21.45729065 17.21466064 C21.51690159 19.0495395 21.5746569 20.88447938 21.63075256 22.71946907 C21.71988184 25.6346759 21.81387026 28.5496915 21.90905762 31.46470642 C22.07638719 36.61345358 22.23942794 41.76232608 22.40106201 46.91125488 C22.65898602 55.12631758 22.92046719 63.34125714 23.18751526 71.55602837 C23.27916593 74.40780887 23.36719241 77.25968514 23.45495605 80.11158752 C23.75065093 89.43356935 24.15287151 98.70877758 25 108 C25.19806244 107.4882724 25.39612488 106.9765448 25.60018921 106.4493103 C35.72724985 80.28674679 45.88212666 54.13551398 56.12255859 28.01708984 C59.77901168 18.68950483 63.41761434 9.35634843 67 0 C73.93 0 80.86 0 88 0 C82.6276332 33.05280459 76.76066214 66.02011057 70.9352113 98.99530065 C69.81411419 105.34259486 68.69602744 111.69041677 67.5785777 118.03835398 C66.48965477 124.22365584 65.3989745 130.40864601 64.30685741 136.59338468 C63.65925017 140.26091884 63.01229534 143.9285649 62.36704063 147.59651375 C61.65441193 151.64691248 60.93811403 155.69665377 60.22143555 159.74633789 C60.01003937 160.95069489 59.79864319 162.15505188 59.58084106 163.39590454 C59.38619766 164.49232773 59.19155426 165.58875092 58.99101257 166.71839905 C58.82274302 167.67178697 58.65447348 168.62517488 58.48110485 169.60745335 C58 172 58 172 57 175 C49.41 175 41.82 175 34 175 C34.36351562 172.89520264 34.72703125 170.79040527 35.1015625 168.62182617 C36.3012672 161.67322291 37.49822156 154.72414794 38.69381714 147.77483654 C39.41890173 143.56084275 40.14491641 139.34701358 40.87304688 135.13354492 C41.57548829 131.06852808 42.27549934 127.0030996 42.97381592 122.93737221 C43.24087725 121.38506422 43.50881906 119.83290746 43.77764893 118.28090477 C44.15356604 116.10978082 44.52636998 113.9381439 44.8984375 111.76635742 C45.11161621 110.52947678 45.32479492 109.29259613 45.54443359 108.01823425 C46.07462376 105.01433703 46.07462376 105.01433703 46 102 C45.64414322 103.01785583 45.64414322 103.01785583 45.28109741 104.05627441 C43.01847086 110.52702278 40.75408691 116.99715387 38.48784447 123.46663666 C37.32348383 126.79074641 36.15974742 130.11507165 34.99755859 133.43994141 C30.13614232 147.34647567 25.25718437 161.2370057 20 175 C15.38 175 10.76 175 6 175 C5.67 150.91 5.34 126.82 5 102 C0.71 126.09 -3.58 150.18 -8 175 C-15.59 175 -23.18 175 -31 175 C-29.66996594 164.55322763 -28.06617791 154.19276159 -26.21850586 143.82495117 C-25.94371236 142.26939957 -25.66918948 140.71380014 -25.39491272 139.15815735 C-24.65827315 134.98496356 -23.91767845 130.81248125 -23.1761291 126.64015746 C-22.39792306 122.25860069 -21.62287142 117.87648573 -20.8473053 113.49446106 C-19.54754465 106.15369665 -18.24512506 98.8134077 -16.94116211 91.47338867 C-15.43313811 82.98447615 -13.92970983 74.49475901 -12.42860883 66.00461978 C-11.13660062 58.69778021 -9.8421631 51.3913741 -8.54567057 44.08532888 C-7.77251814 39.72842539 -7.00020866 35.37137703 -6.23008537 31.013937 C-5.50813602 26.92986686 -4.78314532 22.84634833 -4.05576134 18.76324272 C-3.78901452 17.2629732 -3.52334124 15.76251236 -3.25880051 14.26185226 C-2.89867871 12.21999705 -2.53473889 10.17885928 -2.16978455 8.13786316 C-1.96682235 6.99404269 -1.76386015 5.85022223 -1.55474758 4.67174053 C-1 2 -1 2 0 0 Z " fill="#F5F5F5" transform="translate(339,2)"/>
<path d="M0 0 C0.92929825 -0.00807175 1.8585965 -0.01614349 2.8160553 -0.02445984 C4.79247155 -0.03832692 6.76891201 -0.04903726 8.74536133 -0.05688477 C11.74152732 -0.07396996 14.73655288 -0.11781595 17.73242188 -0.16210938 C19.65493982 -0.17224737 21.57746714 -0.18075999 23.5 -0.1875 C24.3858226 -0.20500809 25.2716452 -0.22251617 26.18431091 -0.24055481 C33.07146693 -0.21704142 40.06095343 1.09542694 45.50645447 5.61503601 C52.47707494 13.40185755 51.45852909 23.75177028 51.04736328 33.49072266 C49.7063523 51.94027955 44.10073084 70.48942905 32.84765625 85.23828125 C33.32203125 85.75390625 33.79640625 86.26953125 34.28515625 86.80078125 C38.09011317 92.73651404 36.87289409 100.67084239 36.56640625 107.42578125 C36.51955688 108.51439453 36.47270752 109.60300781 36.42443848 110.72460938 C35.8699012 122.41939695 34.82807642 134.06280721 33.69091797 145.71337891 C33.33983949 149.3185504 33.00133892 152.92476344 32.6640625 156.53125 C32.44472949 158.82949582 32.22470559 161.12767584 32.00390625 163.42578125 C31.90283569 164.50150391 31.80176514 165.57722656 31.69763184 166.68554688 C31.6008313 167.66587891 31.50403076 168.64621094 31.40429688 169.65625 C31.32070923 170.52016357 31.23712158 171.38407715 31.15100098 172.27416992 C30.84765625 174.23828125 30.84765625 174.23828125 29.84765625 175.23828125 C28.21292743 175.32528467 26.5745157 175.34529188 24.9375 175.3359375 C23.94814453 175.33271484 22.95878906 175.32949219 21.93945312 175.32617188 C20.89853516 175.31779297 19.85761719 175.30941406 18.78515625 175.30078125 C17.74037109 175.29626953 16.69558594 175.29175781 15.61914062 175.28710938 C13.02858965 175.27528038 10.43815066 175.25879814 7.84765625 175.23828125 C8.27871569 167.33361629 9.00593489 159.52134799 10.0390625 151.67578125 C10.14938309 150.83661667 10.25970367 149.99745209 10.37336731 149.13285828 C10.60256589 147.39246385 10.83186113 145.65208216 11.06124878 143.91171265 C13.49697402 125.4824279 13.49697402 125.4824279 14.28515625 106.92578125 C14.28265869 106.06919922 14.28016113 105.21261719 14.27758789 104.33007812 C14.18263561 100.5698104 14.10007012 97.35639155 11.84765625 94.23828125 C9.01495959 92.82193292 6.37299187 92.89198075 3.22265625 92.67578125 C1.09765625 92.52994792 -1.02734375 92.38411458 -3.15234375 92.23828125 C-3.26399872 93.13152603 -3.37565369 94.02477081 -3.49069214 94.94508362 C-4.72570759 104.54252416 -6.26888941 114.05394577 -7.97265625 123.578125 C-8.23911837 125.08121403 -8.50529727 126.5843533 -8.77120972 128.08753967 C-9.46214253 131.98901717 -10.156845 135.88981362 -10.85241699 139.79046631 C-11.56541086 143.79283825 -12.274724 147.79586237 -12.984375 151.79882812 C-14.37015783 159.61261185 -15.7602767 167.42561464 -17.15234375 175.23828125 C-24.74234375 175.23828125 -32.33234375 175.23828125 -40.15234375 175.23828125 C-38.86930921 164.39671876 -37.28890536 153.68051417 -35.37084961 142.93383789 C-35.09598578 141.37652863 -34.82146525 139.81915874 -34.54725647 138.26173401 C-33.81140892 134.08852409 -33.07055135 129.91621907 -32.32847285 125.74411321 C-31.54974741 121.36218627 -30.77502604 116.97955107 -29.99964905 112.59703064 C-28.70050457 105.25793622 -27.39798623 97.91944656 -26.09350586 90.58129883 C-24.58443453 82.09196105 -23.08121853 73.60160149 -21.58095258 65.11070353 C-20.2895744 57.802898 -18.99510502 50.49564506 -17.69801432 43.1888513 C-16.9245052 38.83149785 -16.15207486 34.47396059 -15.38242912 30.11592293 C-14.66125196 26.03334444 -13.93620952 21.95147147 -13.20810509 17.87012291 C-12.94105693 16.36948604 -12.67538141 14.86860418 -12.41114426 13.36746979 C-12.05180841 11.32735946 -11.68762429 9.28817503 -11.3221283 7.24916077 C-11.1191661 6.10571733 -10.9162039 4.96227388 -10.70709133 3.78418064 C-9.52167312 -1.65605131 -4.66830546 0.03814481 0 0 Z M9.84765625 18.23828125 C5.88474477 36.79403147 2.90162267 55.51667148 -0.15234375 74.23828125 C2.4119414 74.373878 4.96900841 74.47261313 7.53515625 74.55078125 C8.61700195 74.61362305 8.61700195 74.61362305 9.72070312 74.67773438 C13.83974166 74.77177635 15.37589151 74.60886802 18.73339844 71.97143555 C24.25542973 64.83296669 25.91545853 56.64887572 27.59765625 47.92578125 C27.81808594 46.87455078 28.03851562 45.82332031 28.265625 44.74023438 C31.12607342 31.65651993 31.12607342 31.65651993 27.84765625 19.23828125 C24.65941057 17.64415841 21.21868963 18.1365339 17.72265625 18.17578125 C16.59150391 18.18254883 16.59150391 18.18254883 15.4375 18.18945312 C13.57418498 18.20124626 11.7109107 18.21918183 9.84765625 18.23828125 Z " fill="#F6F6F6" transform="translate(758.15234375,1.76171875)"/>
<path d="M0 0 C0.83789062 -0.01998047 1.67578125 -0.03996094 2.5390625 -0.06054688 C9.1978277 -0.05539303 15.43546754 1.35792309 20.59350586 5.81420898 C27.49693052 13.5101794 27.48652065 24.35304403 27.13238525 34.15061951 C26.12744298 51.51042975 22.92373145 68.79395154 19.83081055 85.87597656 C19.18818604 89.43370193 18.56119554 92.99394221 17.93554688 96.5546875 C6.46796003 160.99460124 6.46796003 160.99460124 -10.2421875 174.2578125 C-19.29620897 180.33406691 -30.47506469 180.38422825 -41 179.4375 C-47.35467883 177.95868511 -51.48958175 175.01287016 -55 169.4375 C-57.47121952 163.05286436 -58.52561351 157.00570988 -58.4375 150.1875 C-58.42775146 149.28660645 -58.41800293 148.38571289 -58.40795898 147.45751953 C-57.8675744 125.67727306 -53.33445232 103.97249744 -49.625 82.5625 C-49.44244659 81.49642517 -49.25989319 80.43035034 -49.07180786 79.33197021 C-38.510888 17.99165507 -38.510888 17.99165507 -21.63671875 4.91015625 C-14.64344037 1.00428077 -7.92906825 -0.06709212 0 0 Z M-13 23.4375 C-16.51752526 30.41918287 -18.2663354 37.91681281 -19.890625 45.515625 C-20.14338196 46.67692932 -20.39613892 47.83823364 -20.65655518 49.034729 C-23.63031384 62.98078286 -26.02709419 77.02619068 -28.39459229 91.08508301 C-28.87289303 93.91447465 -29.35835131 96.7426187 -29.84394455 99.57076645 C-30.32160686 102.35545628 -30.79623988 105.14065557 -31.26987457 107.92603302 C-31.59574905 109.84177132 -31.92293744 111.75728598 -32.25018311 113.67279053 C-36.50612332 133.91088124 -36.50612332 133.91088124 -34.9375 154.0625 C-33.11993155 156.73073258 -33.11993155 156.73073258 -29.6875 157.5 C-25.45109559 157.42819654 -23.48013282 156.83492483 -20 154.4375 C-16.36945715 149.79374157 -14.86144206 145.43289835 -13.4921875 139.8203125 C-13.28238251 138.99024689 -13.07257751 138.16018127 -12.85641479 137.30496216 C-10.56897272 128.04600936 -8.81505891 118.69541948 -7.125 109.3125 C-6.78605317 107.45981965 -6.44677212 105.60720043 -6.10717773 103.75463867 C-3.67655648 90.43432002 -1.34763959 77.0959782 0.9375 63.75 C1.08693054 62.87800964 1.23636108 62.00601929 1.39031982 61.10760498 C1.81350747 58.63074891 2.23365158 56.15340082 2.65234375 53.67578125 C2.77489029 52.95676132 2.89743683 52.23774139 3.0236969 51.49693298 C4.17958638 44.6048321 5.14865363 37.75134515 5.25 30.75 C5.28867187 29.13544922 5.28867187 29.13544922 5.328125 27.48828125 C4.9274047 23.76253655 3.6676993 21.1051993 1 18.4375 C-5.07384309 17.81982104 -9.11748623 18.27757175 -13 23.4375 Z " fill="#F5F5F5" transform="translate(286,-0.4375)"/>
<path d="M0 0 C7.59 0 15.18 0 23 0 C21.48255674 11.2919562 19.5539006 22.48430336 17.54670906 33.69776917 C16.95928831 36.98096572 16.37525664 40.26474976 15.792099 43.54870605 C14.13511446 52.87674368 12.47281942 62.20383026 10.80688477 71.53027344 C9.78283219 77.26460814 8.76318189 82.99971258 7.74603081 88.73527527 C7.3622296 90.89443897 6.97680829 93.05331545 6.58958626 95.21186829 C4.64472901 106.05473816 2.7887476 116.90318174 1.23999023 127.81054688 C1.11283914 128.67542976 0.98568804 129.54031265 0.85468388 130.43140411 C-1.1096025 142.10506757 -1.1096025 142.10506757 2 153 C4.83378792 154.07224408 6.59542942 154.0789406 9.5625 153.5 C15.18262524 150.04146139 16.687785 143.32441994 18.16049194 137.26568604 C18.38854523 136.26535339 18.61659851 135.26502075 18.8515625 134.234375 C19.10370514 133.15428162 19.35584778 132.07418823 19.6156311 130.96136475 C22.88354038 116.59939545 25.40383958 102.09013615 27.96147156 87.5887413 C28.66302322 83.62106293 29.3735154 79.65498534 30.08300781 75.6887207 C31.60639378 67.16364634 33.11850898 58.63660123 34.62690735 50.10886383 C35.20351436 46.84965819 35.780976 43.59060424 36.35839844 40.33154297 C36.66935959 38.57603622 36.66935959 38.57603622 36.98660278 36.7850647 C37.37810434 34.5753804 37.76976017 32.36572342 38.16159058 30.15609741 C39.02123787 25.30758398 39.87839015 20.45867674 40.72802734 15.60839844 C41.02179224 13.9407521 41.31557361 12.27310866 41.609375 10.60546875 C41.80217545 9.49521584 41.80217545 9.49521584 41.99887085 8.36253357 C42.50821078 5.48144044 43.07296532 2.78110405 44 0 C51.26 0 58.52 0 66 0 C65.34229176 11.60556639 63.22565186 22.89000846 61.17578125 34.31640625 C60.78770613 36.4989626 60.39995089 38.68157585 60.01249695 40.86424255 C59.19983772 45.4348038 58.38319589 50.00463066 57.5637207 54.57397461 C56.52850477 60.34815887 55.50340222 66.12408372 54.4810667 71.90056038 C39.00716943 159.24469992 39.00716943 159.24469992 24.1875 171.5 C14.68833787 177.77234751 3.24998287 178.49263365 -7.78515625 176.49609375 C-13.98084583 174.6860008 -17.52390111 171.58317306 -20.75 165.9375 C-26.52503356 152.36617114 -23.21269196 134.48298566 -21.05859375 120.421875 C-20.95326639 119.7202486 -20.84793903 119.01862221 -20.73941994 118.29573441 C-17.39652473 96.07002972 -13.30033798 73.96239103 -9.31256104 51.84564209 C-8.25589594 45.9785249 -7.2053963 40.11030386 -6.15429688 34.2421875 C-4.10871959 22.82706661 -2.05601794 11.41324501 0 0 Z " fill="#F6F6F6" transform="translate(527,2)"/>
<path d="M0 0 C1.19375244 -0.01546875 1.19375244 -0.01546875 2.41162109 -0.03125 C8.64447919 0.06199035 14.39737956 1.06263354 19.3359375 5.0859375 C20.00496094 5.94058594 20.00496094 5.94058594 20.6875 6.8125 C21.37972656 7.65941406 21.37972656 7.65941406 22.0859375 8.5234375 C25.085467 13.20423195 25.56088846 17.14979483 25.54296875 22.671875 C25.54251053 23.35050598 25.54205231 24.02913696 25.5415802 24.72833252 C25.5385733 26.15370446 25.53073411 27.57907357 25.51831055 29.00439453 C25.49994168 31.19445305 25.49780184 33.38409088 25.49804688 35.57421875 C25.46009348 46.28990652 25.46009348 46.28990652 24.3125 47.4375 C22.67777118 47.52450342 21.03935945 47.54451063 19.40234375 47.53515625 C18.41298828 47.53193359 17.42363281 47.52871094 16.40429688 47.52539062 C15.36337891 47.51701172 14.32246094 47.50863281 13.25 47.5 C12.20521484 47.49548828 11.16042969 47.49097656 10.08398438 47.48632812 C7.4934334 47.47449913 4.90299441 47.45801689 2.3125 47.4375 C2.32297363 46.69588623 2.33344727 45.95427246 2.34423828 45.19018555 C2.38577196 41.83515807 2.41181789 38.48018467 2.4375 35.125 C2.45425781 33.95775391 2.47101562 32.79050781 2.48828125 31.58789062 C2.49472656 30.46962891 2.50117187 29.35136719 2.5078125 28.19921875 C2.51828613 27.16756592 2.52875977 26.13591309 2.53955078 25.07299805 C2.50547515 22.20562408 2.50547515 22.20562408 0.3125 19.4375 C-3.76405058 18.82217161 -5.89174702 18.91933527 -9.375 21.1875 C-16.76720869 31.57655006 -20.49990529 50.83304505 -18.6875 63.4375 C-16.23452372 71.67249178 -9.82211934 76.87925597 -3.1875 81.875 C4.80433807 88.01523675 10.24238056 94.36533992 12.3125 104.4375 C13.68098048 115.67093979 11.85212796 126.28324722 9.625 137.3125 C9.25979248 139.12983643 9.25979248 139.12983643 8.88720703 140.98388672 C6.01315903 154.24439969 1.92011021 166.90219398 -9.80078125 174.875 C-19.97350698 180.24777941 -32.76836885 181.50377815 -43.90625 178.59765625 C-49.7377484 175.98929025 -53.18122334 172.30102168 -55.6875 166.4375 C-57.31874646 161.10582239 -56.87808337 155.52154045 -56.875 150 C-56.87564453 148.83033691 -56.87628906 147.66067383 -56.87695312 146.45556641 C-56.82842398 138.53538859 -56.28154148 131.20845221 -54.6875 123.4375 C-47.0975 123.4375 -39.5075 123.4375 -31.6875 123.4375 C-32.6875 132.4375 -32.6875 132.4375 -33.00390625 135.22265625 C-34.31515434 145.57352156 -34.31515434 145.57352156 -31.6875 155.4375 C-30.27256449 155.54634119 -28.85517057 155.62347617 -27.4375 155.6875 C-26.64859375 155.73390625 -25.8596875 155.7803125 -25.046875 155.828125 C-21.76696494 155.28509353 -20.72459293 154.02187163 -18.6875 151.4375 C-15.24038248 144.02097442 -14.055617 135.64658316 -12.8125 127.625 C-12.66804443 126.74207275 -12.52358887 125.85914551 -12.37475586 124.94946289 C-11.3037788 117.37851726 -12.14428177 110.98497315 -16.234375 104.28515625 C-20.07799131 99.39797745 -25.15375181 95.51455874 -29.94140625 91.58984375 C-38.74100489 84.25962781 -42.35896697 76.31260691 -43.56298828 64.94604492 C-43.77590441 60.65641109 -43.16465385 56.54279395 -42.5 52.3125 C-42.35981445 51.39525146 -42.21962891 50.47800293 -42.07519531 49.53295898 C-39.60379716 34.05697726 -36.16305841 16.17054384 -23.1015625 5.9921875 C-15.63185276 1.18159773 -8.74376001 0.09454539 0 0 Z " fill="#F6F6F6" transform="translate(864.6875,-0.4375)"/>
<path d="M0 0 C5.97734898 -0.07448767 11.95442418 -0.1287615 17.93212891 -0.16479492 C19.9631013 -0.17982599 21.99404154 -0.20025647 24.02490234 -0.22631836 C26.95418259 -0.26295232 29.88303144 -0.27978351 32.8125 -0.29296875 C34.16142334 -0.31619453 34.16142334 -0.31619453 35.53759766 -0.33988953 C42.65142657 -0.34176325 48.42217005 0.59402538 53.8125 5.625 C58.78337905 12.42140765 59.50167197 20.26788607 59.375 28.4375 C59.36484863 29.39833496 59.35469727 30.35916992 59.34423828 31.34912109 C58.91074599 51.66277125 54.76228471 77.43577859 40.6875 92.9375 C30.71162918 102.1613096 18.04575212 101.27523599 5 102 C0.71 126.09 -3.58 150.18 -8 175 C-15.59 175 -23.18 175 -31 175 C-29.66996594 164.55322763 -28.06617791 154.19276159 -26.21850586 143.82495117 C-25.94371236 142.26939957 -25.66918948 140.71380014 -25.39491272 139.15815735 C-24.65827315 134.98496356 -23.91767845 130.81248125 -23.1761291 126.64015746 C-22.39792306 122.25860069 -21.62287142 117.87648573 -20.8473053 113.49446106 C-19.54754465 106.15369665 -18.24512506 98.8134077 -16.94116211 91.47338867 C-15.43313811 82.98447615 -13.92970983 74.49475901 -12.42860883 66.00461978 C-11.13660062 58.69778021 -9.8421631 51.3913741 -8.54567057 44.08532888 C-7.77251814 39.72842539 -7.00020866 35.37137703 -6.23008537 31.013937 C-5.50813602 26.92986686 -4.78314532 22.84634833 -4.05576134 18.76324272 C-3.78901452 17.2629732 -3.52334124 15.76251236 -3.25880051 14.26185226 C-2.89867871 12.21999705 -2.53473889 10.17885928 -2.16978455 8.13786316 C-1.96682235 6.99404269 -1.76386015 5.85022223 -1.55474758 4.67174053 C-1 2 -1 2 0 0 Z M19 18 C18.89168854 18.60197708 18.78337708 19.20395416 18.67178345 19.82417297 C17.5361918 26.13548913 16.40045948 32.44677996 15.26464844 38.75805664 C14.84176138 41.10798515 14.41890922 43.45791994 13.99609375 45.80786133 C13.38551033 49.2013515 12.77479804 52.59481846 12.1640625 55.98828125 C11.97752106 57.02519608 11.79097961 58.0621109 11.5987854 59.13044739 C11.41874969 60.13065414 11.23871399 61.1308609 11.05322266 62.16137695 C10.87994446 63.12830475 10.70666626 64.09523254 10.52813721 65.09146118 C10.16704272 67.08006818 9.79746217 69.067148 9.42059326 71.05282593 C9.2371637 72.02563507 9.05373413 72.99844421 8.86474609 74.00073242 C8.61559952 75.29994881 8.61559952 75.29994881 8.36141968 76.62541199 C7.89968653 79.25875384 7.89968653 79.25875384 8 83 C10.22855574 83.0814222 12.45797655 83.13938079 14.6875 83.1875 C15.92886719 83.22230469 17.17023438 83.25710937 18.44921875 83.29296875 C22.39510303 82.96740074 24.019248 82.58467252 27 80 C30.33445666 74.92627656 32.07202442 69.19341403 33.625 63.375 C33.83664795 62.58794678 34.0482959 61.80089355 34.26635742 60.98999023 C36.97009464 50.62583935 38.16247406 40.50864444 38.3125 29.8125 C38.33030518 28.98564697 38.34811035 28.15879395 38.36645508 27.30688477 C38.42432264 23.11453542 38.42432264 23.11453542 36.98901367 19.2644043 C33.8140752 17.24611458 30.44484965 17.68877805 26.8125 17.8125 C25.68811523 17.83280273 25.68811523 17.83280273 24.54101562 17.85351562 C22.69370233 17.88881461 20.84675934 17.94262083 19 18 Z " fill="#F6F6F6" transform="translate(448,2)"/>
<path d="M0 0 C16.83 0 33.66 0 51 0 C49 16 49 16 48 18 C38.76 18.33 29.52 18.66 20 19 C19.04287109 24.45273437 19.04287109 24.45273437 18.06640625 30.015625 C17.44785365 33.53375202 16.82880919 37.05179215 16.2097168 40.56982422 C15.77951431 43.01602277 15.34982372 45.4623114 14.9206543 47.90869141 C14.30391646 51.42374056 13.68534224 54.93846232 13.06640625 58.453125 C12.87470352 59.5480426 12.68300079 60.64296021 12.48548889 61.77105713 C12.30537766 62.79181335 12.12526642 63.81256958 11.93969727 64.86425781 C11.78203384 65.76138489 11.62437042 66.65851196 11.46192932 67.58282471 C11.05012748 69.73769385 10.53209032 71.87163873 10 74 C17.92 74 25.84 74 34 74 C33.01 79.94 32.02 85.88 31 92 C23.08 92.33 15.16 92.66 7 93 C6.70230713 94.71622559 6.40461426 96.43245117 6.09790039 98.20068359 C5.1146345 103.86491244 4.12846316 109.52863123 3.14029789 115.19200706 C2.5411607 118.62641472 1.94319924 122.06101853 1.34790039 125.49609375 C0.66379331 129.44331886 -0.02538286 133.38964399 -0.71484375 137.3359375 C-0.92842026 138.57242035 -1.14199677 139.8089032 -1.36204529 141.08285522 C-1.56217728 142.22388702 -1.76230927 143.36491882 -1.96850586 144.54052734 C-2.14393417 145.548685 -2.31936249 146.55684265 -2.50010681 147.59555054 C-3 150 -3 150 -4 152 C5.24 152 14.48 152 24 152 C22.86426593 164.49307479 22.86426593 164.49307479 22 169.125 C21.835 170.03507813 21.67 170.94515625 21.5 171.8828125 C21 174 21 174 20 175 C18.43452952 175.09326716 16.86487228 175.11745582 15.29663086 175.11352539 C14.29566879 175.11344986 13.29470673 175.11337433 12.26341248 175.11329651 C11.1748848 175.10813522 10.08635712 175.10297394 8.96484375 175.09765625 C7.85645645 175.0962413 6.74806915 175.09482635 5.60609436 175.09336853 C2.04986931 175.08775033 -1.50629383 175.07519475 -5.0625 175.0625 C-7.46679597 175.05748734 -9.87109292 175.05292403 -12.27539062 175.04882812 C-18.18361573 175.03777499 -24.09180149 175.02062304 -30 175 C-29.43021596 165.57821146 -27.98948545 156.38399588 -26.33203125 147.10546875 C-26.0571884 145.54378702 -25.7828184 143.98202202 -25.50888062 142.42018127 C-24.7699753 138.21533935 -24.02442469 134.0117012 -23.27752304 129.80827332 C-22.49484354 125.39725415 -21.71812441 120.98518538 -20.94067383 116.57324219 C-19.63624002 109.17563147 -18.32781533 101.77873607 -17.01660156 94.38232422 C-15.33367531 84.88903242 -13.65707711 75.39463469 -11.9825592 65.89985657 C-10.54069311 57.72434859 -9.0962948 49.54928834 -7.65130234 41.37433243 C-7.1875621 38.75035136 -6.72410155 36.126321 -6.26065063 33.50228882 C-5.5332393 29.38484741 -4.80425894 25.26768666 -4.07405472 21.15073967 C-3.80630002 19.63991756 -3.53902369 18.12901057 -3.27225876 16.61801338 C-2.90833859 14.55727866 -2.54266052 12.49686352 -2.17651367 10.43652344 C-1.97225266 9.28327576 -1.76799164 8.13002808 -1.55754089 6.9418335 C-1.11595604 4.61183561 -0.57516685 2.30066739 0 0 Z " fill="#F5F5F5" transform="translate(683,2)"/>
<path d="M0 0 C21.78 0 43.56 0 66 0 C64 14 64 14 63 20 C55.74 20.33 48.48 20.66 41 21 C40.66396255 22.91457504 40.32792511 24.82915009 39.98170471 26.80174255 C36.82219711 44.80001189 33.65857409 62.79755348 30.49072361 80.79435635 C28.86201004 90.0478276 27.23479877 99.30155839 25.61108398 108.5559082 C24.19636118 116.61908768 22.77886047 124.68177291 21.35797828 132.74386936 C20.60526942 137.01531973 19.85398339 141.28700964 19.10601997 145.55929375 C18.40276271 149.57596328 17.69580863 153.59196408 16.98594666 157.60747147 C16.72534218 159.08551982 16.46611856 160.56381238 16.2083416 162.04235649 C15.85765121 164.05263819 15.50162403 166.06198676 15.14527893 168.0712738 C14.94709344 169.19862662 14.74890795 170.32597944 14.54471684 171.48749447 C14 174 14 174 13 175 C11.36527118 175.08700342 9.72685945 175.10701063 8.08984375 175.09765625 C7.10048828 175.09443359 6.11113281 175.09121094 5.09179688 175.08789062 C4.05087891 175.07951172 3.00996094 175.07113281 1.9375 175.0625 C0.89271484 175.05798828 -0.15207031 175.05347656 -1.22851562 175.04882812 C-3.81906936 175.03699911 -6.40949746 175.01967834 -9 175 C-7.44448278 159.88584723 -4.63878731 144.96414529 -1.98384547 130.01413512 C-1.31705086 126.25511152 -0.65450037 122.49533957 0.00865173 118.735672 C1.11964048 112.44072507 2.23373218 106.14633373 3.34985352 99.85229492 C4.63970397 92.57840267 5.92508686 85.3037319 7.2080279 78.02861804 C8.44670992 71.00481435 9.68798433 63.98147147 10.93063164 56.9583683 C11.45807678 53.97730907 11.98470674 50.99610753 12.51069832 48.01479149 C13.12828401 44.51522303 13.74816664 41.01606903 14.36984444 37.51722527 C14.70631389 35.62050508 15.0405496 33.72338907 15.37472534 31.82626343 C15.6753614 30.13827385 15.6753614 30.13827385 15.98207092 28.41618347 C16.24226816 26.94713704 16.24226816 26.94713704 16.5077219 25.4484129 C17 23 17 23 18 20 C10.74 20 3.48 20 -4 20 C-3.525625 17.07125 -3.05125 14.1425 -2.5625 11.125 C-2.41498291 10.20348145 -2.26746582 9.28196289 -2.11547852 8.33251953 C-1.99615967 7.60661621 -1.87684082 6.88071289 -1.75390625 6.1328125 C-1.63345947 5.38918457 -1.5130127 4.64555664 -1.38891602 3.87939453 C-1 2 -1 2 0 0 Z " fill="#F6F6F6" transform="translate(605,2)"/>
<path d="M0 0 C0.66 0.33 1.32 0.66 2 1 C-0.64 3.64 -3.28 6.28 -6 9 C-6.66 8.67 -7.32 8.34 -8 8 C-5.33333333 5.33333333 -2.66666667 2.66666667 0 0 Z " fill="#A9A9A9" transform="translate(265,4)"/>
</svg>
