<svg xmlns="http://www.w3.org/2000/svg" viewBox="0 0 44 64"><defs><style>.cls-1{fill:#00cde2;}.cls-2{fill:#fff;opacity:0.4;}</style></defs><title>Water</title><g id="Layer_2" data-name="Layer 2"><g id="Layer_1-2" data-name="Layer 1"><path class="cls-1" d="M44,41.59C44,28,28.58,7.17,23.56.76a2,2,0,0,0-3.12,0C15.42,7.17,0,28,0,41.59A22.21,22.21,0,0,0,22,64,22.21,22.21,0,0,0,44,41.59Z"/><path class="cls-2" d="M35.24,50.75a15.88,15.88,0,0,1-15,7A16.2,16.2,0,0,1,6.09,43.37,16.39,16.39,0,0,1,13,28.11a1.27,1.27,0,0,1,2,1.09q0,.09,0,.17A19.12,19.12,0,0,0,34,48.72h.17A1.3,1.3,0,0,1,35.24,50.75Z"/></g></g></svg>